SplineFontDB: 3.2
FontName: KurageSansDG
FullName: KurageSansDG
FamilyName: KurageSansDG
Weight: Book
Copyright: Copyright (c) 2021, Jules Baud, DEUS GAMES STUDIO
Version: 001.000
ItalicAngle: 0
UnderlinePosition: -100
UnderlineWidth: 50
Ascent: 800
Descent: 200
InvalidEm: 0
sfntRevision: 0x00010000
LayerCount: 2
Layer: 0 1 "Arri+AOgA-re" 1
Layer: 1 1 "Avant" 0
XUID: [1021 26 358088598 15771]
StyleMap: 0x0000
FSType: 0
OS2Version: 4
OS2_WeightWidthSlopeOnly: 0
OS2_UseTypoMetrics: 1
CreationTime: 1635157493
ModificationTime: 1639228550
PfmFamily: 17
TTFWeight: 400
TTFWidth: 5
LineGap: 90
VLineGap: 0
Panose: 2 0 5 3 0 0 0 0 0 0
OS2TypoAscent: 800
OS2TypoAOffset: 0
OS2TypoDescent: -200
OS2TypoDOffset: 0
OS2TypoLinegap: 90
OS2WinAscent: 810
OS2WinAOffset: 0
OS2WinDescent: 201
OS2WinDOffset: 0
HheadAscent: 810
HheadAOffset: 0
HheadDescent: -201
HheadDOffset: 0
OS2SubXSize: 650
OS2SubYSize: 699
OS2SubXOff: 0
OS2SubYOff: 140
OS2SupXSize: 650
OS2SupYSize: 699
OS2SupXOff: 0
OS2SupYOff: 479
OS2StrikeYSize: 49
OS2StrikeYPos: 258
OS2CapHeight: 800
OS2XHeight: 800
OS2Vendor: 'PfEd'
OS2CodePages: 00000001.00000000
OS2UnicodeRanges: 00000001.00000000.00000000.00000000
MarkAttachClasses: 1
DEI: 91125
ShortTable: cvt  2
  33
  633
EndShort
ShortTable: maxp 16
  1
  0
  68
  42
  3
  0
  0
  2
  0
  1
  1
  0
  64
  46
  0
  0
EndShort
LangName: 1033 "" "" "Regular" "FontForge 2.0 : KurageSansDG : 22-11-2021"
GaspTable: 1 65535 2 0
Encoding: UnicodeBmp
UnicodeInterp: none
NameList: AGL For New Fonts
DisplaySize: -48
AntiAlias: 1
FitToEm: 0
WinInfo: 0 38 14
BeginChars: 65539 71

StartChar: .notdef
Encoding: 65536 -1 0
Width: 364
Flags: W
LayerCount: 2
Fore
SplineSet
33 0 m 1,0,-1
 33 666 l 1,1,-1
 298 666 l 1,2,-1
 298 0 l 1,3,-1
 33 0 l 1,0,-1
66 33 m 1,4,-1
 265 33 l 1,5,-1
 265 633 l 1,6,-1
 66 633 l 1,7,-1
 66 33 l 1,4,-1
EndSplineSet
EndChar

StartChar: space
Encoding: 32 32 3
Width: 550
Flags: W
LayerCount: 2
Fore
SplineSet
238 585 m 1,0,-1
 330 528 l 1,1,-1
 238 585 l 1,0,-1
EndSplineSet
EndChar

StartChar: period
Encoding: 46 46 4
Width: 256
Flags: W
LayerCount: 2
Fore
SplineSet
43 -22 m 1,0,-1
 182 -22 l 2,1,2
 198 -22 198 -22 208.5 -33 c 128,-1,3
 219 -44 219 -44 219 -59 c 2,4,-1
 219 -199 l 1,5,-1
 80 -199 l 2,6,7
 64 -199 64 -199 53.5 -188 c 128,-1,8
 43 -177 43 -177 43 -162 c 2,9,-1
 43 -22 l 1,0,-1
EndSplineSet
EndChar

StartChar: zero
Encoding: 48 48 5
Width: 862
Flags: W
LayerCount: 2
Fore
SplineSet
841 389 m 1,0,-1
 841 213 l 1,1,-1
 776 213 l 1,2,-1
 776 -200 l 1,3,-1
 201 -199 l 2,4,5
 150 -199 150 -199 114.5 -163.5 c 128,-1,6
 79 -128 79 -128 79 -77 c 2,7,-1
 79 213 l 1,8,-1
 15 213 l 1,9,-1
 15 389 l 1,10,-1
 79 389 l 1,11,-1
 79 799 l 1,12,-1
 80 799 l 1,13,-1
 80 800 l 1,14,-1
 655 799 l 2,15,16
 705 799 705 799 740.5 763.5 c 128,-1,17
 776 728 776 728 776 678 c 2,18,-1
 776 389 l 1,19,-1
 841 389 l 1,0,-1
378 -23 m 2,20,-1
 600 -23 l 1,21,-1
 600 501 l 2,22,23
 600 551 600 551 564 587 c 128,-1,24
 528 623 528 623 478 623 c 2,25,-1
 256 623 l 1,26,-1
 256 389 l 1,27,-1
 256 99 l 2,28,29
 256 49 256 49 292 13 c 128,-1,30
 328 -23 328 -23 378 -23 c 2,20,-1
EndSplineSet
EndChar

StartChar: one
Encoding: 49 49 6
Width: 508
Flags: W
LayerCount: 2
Fore
SplineSet
413 -24 m 1,0,-1
 470 -24 l 1,1,-1
 470 -200 l 1,2,-1
 170 -200 l 1,3,-1
 170 -24 l 1,4,-1
 237 -24 l 1,5,-1
 237 624 l 1,6,-1
 38 624 l 1,7,-1
 163 800 l 1,8,-1
 237 800 l 1,9,-1
 413 800 l 1,10,-1
 413 -24 l 1,0,-1
EndSplineSet
EndChar

StartChar: two
Encoding: 50 50 7
Width: 919
Flags: W
LayerCount: 2
Fore
SplineSet
874 195 m 1,0,-1
 219 195 l 1,1,-1
 219 58 l 2,2,3
 219 24 219 24 242.5 0.5 c 128,-1,4
 266 -23 266 -23 299 -23 c 2,5,-1
 874 -23 l 1,6,-1
 874 -200 l 1,7,-1
 123 -200 l 2,8,9
 90 -200 90 -200 66 -176.5 c 128,-1,10
 42 -153 42 -153 42 -119 c 2,11,-1
 42 372 l 1,12,-1
 636 372 l 1,13,-1
 636 522 l 2,14,15
 636 543 636 543 633.5 558.5 c 128,-1,16
 631 574 631 574 626.5 585 c 128,-1,17
 622 596 622 596 612.5 603 c 128,-1,18
 603 610 603 610 594 614 c 128,-1,19
 585 618 585 618 568 620 c 128,-1,20
 551 622 551 622 537 622.5 c 128,-1,21
 523 623 523 623 498 623 c 2,22,-1
 42 623 l 1,23,-1
 42 800 l 1,24,-1
 636 800 l 2,25,26
 710 800 710 800 761.5 748 c 128,-1,27
 813 696 813 696 813 623 c 2,28,-1
 813 372 l 1,29,-1
 874 372 l 1,30,-1
 874 195 l 1,0,-1
EndSplineSet
EndChar

StartChar: three
Encoding: 51 51 8
Width: 916
Flags: W
LayerCount: 2
Fore
SplineSet
36 623 m 1,0,-1
 36 800 l 1,1,-1
 868 800 l 1,2,-1
 868 623 l 1,3,-1
 801 623 l 1,4,-1
 801 386 l 1,5,-1
 868 386 l 1,6,-1
 868 209 l 1,7,-1
 801 209 l 1,8,-1
 801 -23 l 1,9,-1
 868 -23 l 1,10,-1
 868 -200 l 1,11,-1
 36 -200 l 1,12,-1
 36 -23 l 1,13,-1
 625 -23 l 1,14,-1
 625 209 l 1,15,-1
 401 209 l 1,16,-1
 401 386 l 1,17,-1
 625 386 l 1,18,-1
 625 623 l 1,19,-1
 36 623 l 1,0,-1
EndSplineSet
EndChar

StartChar: four
Encoding: 52 52 9
Width: 901
Flags: W
LayerCount: 2
Fore
SplineSet
863 395 m 1,0,-1
 863 210 l 1,1,-1
 798 210 l 1,2,-1
 798 -24 l 2,3,4
 798 -60 798 -60 776.5 -94 c 128,-1,5
 755 -128 755 -128 725.5 -149 c 128,-1,6
 696 -170 696 -170 668 -183 c 128,-1,7
 640 -196 640 -196 624 -196 c 2,8,-1
 449 -200 l 1,9,-1
 449 -16 l 1,10,-1
 544 -15 l 2,11,12
 573 -15 573 -15 593.5 5.5 c 128,-1,13
 614 26 614 26 614 56 c 2,14,-1
 614 209 l 1,15,-1
 35 207 l 1,16,-1
 35 302 l 1,17,-1
 35 800 l 1,18,-1
 220 800 l 1,19,-1
 220 392 l 1,20,-1
 614 394 l 1,21,-1
 614 800 l 1,22,-1
 798 800 l 1,23,-1
 798 394 l 1,24,-1
 863 395 l 1,0,-1
EndSplineSet
EndChar

StartChar: five
Encoding: 53 53 10
Width: 901
Flags: W
LayerCount: 2
Fore
SplineSet
27 195 m 1,0,-1
 27 372 l 1,1,-1
 88 372 l 1,2,-1
 88 623 l 2,3,4
 88 696 88 696 139.5 748 c 128,-1,5
 191 800 191 800 265 800 c 2,6,-1
 859 800 l 1,7,-1
 859 623 l 1,8,-1
 394 623 l 2,9,10
 353 623 353 623 331.5 620 c 128,-1,11
 310 617 310 617 293 606 c 128,-1,12
 276 595 276 595 270.5 574 c 128,-1,13
 265 553 265 553 265 516 c 2,14,-1
 265 372 l 1,15,-1
 859 372 l 1,16,-1
 859 -119 l 2,17,18
 859 -153 859 -153 835 -176.5 c 128,-1,19
 811 -200 811 -200 778 -200 c 2,20,-1
 27 -200 l 1,21,-1
 27 -23 l 1,22,-1
 602 -23 l 2,23,24
 635 -23 635 -23 658.5 0.5 c 128,-1,25
 682 24 682 24 682 58 c 2,26,-1
 682 195 l 1,27,-1
 27 195 l 1,0,-1
EndSplineSet
EndChar

StartChar: six
Encoding: 54 54 11
Width: 904
Flags: W
LayerCount: 2
Fore
SplineSet
860 -200 m 1,0,-1
 315 -200 l 2,1,2
 226 -200 226 -200 156.5 -137 c 128,-1,3
 87 -74 87 -74 87 8 c 2,4,-1
 87 162 l 1,5,-1
 26 162 l 1,6,-1
 26 344 l 1,7,-1
 87 344 l 1,8,-1
 87 619 l 1,9,-1
 87 800 l 1,10,-1
 860 800 l 1,11,-1
 860 619 l 1,12,-1
 268 619 l 1,13,-1
 268 344 l 1,14,-1
 585 344 l 2,15,16
 699 344 699 344 779.5 263.5 c 128,-1,17
 860 183 860 183 860 69 c 2,18,-1
 860 -200 l 1,0,-1
268 63 m 2,19,20
 268 29 268 29 292 5 c 128,-1,21
 316 -19 316 -19 350 -19 c 2,22,-1
 679 -19 l 1,23,-1
 679 61 l 2,24,25
 679 103 679 103 649 132.5 c 128,-1,26
 619 162 619 162 578 162 c 2,27,-1
 268 162 l 1,28,-1
 268 63 l 2,19,20
EndSplineSet
EndChar

StartChar: seven
Encoding: 55 55 12
Width: 916
Flags: W
LayerCount: 2
Fore
SplineSet
877 621 m 1,0,-1
 796 621 l 1,1,-1
 636 374 l 1,2,-1
 684 374 l 1,3,-1
 579 209 l 1,4,-1
 529 209 l 1,5,-1
 263 -200 l 1,6,-1
 42 -200 l 1,7,-1
 314 209 l 1,8,-1
 44 215 l 1,9,-1
 44 382 l 1,10,-1
 423 374 l 1,11,-1
 588 621 l 1,12,-1
 42 621 l 1,13,-1
 42 800 l 1,14,-1
 877 800 l 1,15,-1
 877 621 l 1,0,-1
EndSplineSet
EndChar

StartChar: eight
Encoding: 56 56 13
Width: 901
Flags: W
LayerCount: 2
Fore
SplineSet
862 389 m 1,0,-1
 862 213 l 1,1,-1
 797 213 l 1,2,-1
 797 -200 l 1,3,-1
 222 -199 l 2,4,5
 171 -199 171 -199 135.5 -163.5 c 128,-1,6
 100 -128 100 -128 100 -77 c 2,7,-1
 100 213 l 1,8,-1
 36 213 l 1,9,-1
 36 389 l 1,10,-1
 100 389 l 1,11,-1
 100 799 l 1,12,-1
 101 799 l 1,13,-1
 101 800 l 1,14,-1
 676 799 l 2,15,16
 726 799 726 799 761.5 763.5 c 128,-1,17
 797 728 797 728 797 678 c 2,18,-1
 797 389 l 1,19,-1
 862 389 l 1,0,-1
277 623 m 1,20,-1
 277 389 l 1,21,-1
 621 389 l 1,22,-1
 621 501 l 2,23,24
 621 551 621 551 585 587 c 128,-1,25
 549 623 549 623 499 623 c 2,26,-1
 277 623 l 1,20,-1
621 -23 m 1,27,-1
 621 213 l 1,28,-1
 277 213 l 1,29,-1
 277 99 l 2,30,31
 277 49 277 49 313 13 c 128,-1,32
 349 -23 349 -23 399 -23 c 2,33,-1
 621 -23 l 1,27,-1
EndSplineSet
EndChar

StartChar: nine
Encoding: 57 57 14
Width: 892
Flags: W
LayerCount: 2
Fore
SplineSet
792 394 m 1,0,-1
 857 395 l 1,1,-1
 857 210 l 1,2,-1
 792 210 l 1,3,-1
 792 -24 l 2,4,5
 792 -60 792 -60 770.5 -94 c 128,-1,6
 749 -128 749 -128 719.5 -149 c 128,-1,7
 690 -170 690 -170 662 -183 c 128,-1,8
 634 -196 634 -196 618 -196 c 2,9,-1
 261 -200 l 1,10,-1
 261 -16 l 1,11,-1
 538 -15 l 2,12,13
 567 -15 567 -15 587.5 5.5 c 128,-1,14
 608 26 608 26 608 56 c 2,15,-1
 608 209 l 1,16,-1
 125 207 l 1,17,-1
 124 207 l 2,18,19
 85 207 85 207 57 235 c 128,-1,20
 29 263 29 263 29 302 c 2,21,-1
 29 800 l 1,22,-1
 792 800 l 1,23,-1
 792 394 l 1,0,-1
214 436 m 2,24,25
 214 418 214 418 226.5 405 c 128,-1,26
 239 392 239 392 257 392 c 2,27,-1
 258 392 l 1,28,-1
 608 394 l 1,29,-1
 608 618 l 1,30,-1
 214 618 l 1,31,-1
 214 436 l 2,24,25
EndSplineSet
EndChar

StartChar: colon
Encoding: 58 58 15
Width: 292
Flags: W
LayerCount: 2
Fore
SplineSet
64 -21 m 1,0,-1
 203 -21 l 2,1,2
 219 -21 219 -21 229.5 -32 c 128,-1,3
 240 -43 240 -43 240 -58 c 2,4,-1
 240 -198 l 1,5,-1
 101 -198 l 2,6,7
 85 -198 85 -198 74.5 -187 c 128,-1,8
 64 -176 64 -176 64 -161 c 2,9,-1
 64 -21 l 1,0,-1
240 534 m 1,10,-1
 240 394 l 2,11,12
 240 379 240 379 229.5 368 c 128,-1,13
 219 357 219 357 203 357 c 2,14,-1
 64 357 l 1,15,-1
 64 497 l 2,16,17
 64 512 64 512 74.5 523 c 128,-1,18
 85 534 85 534 101 534 c 2,19,-1
 240 534 l 1,10,-1
EndSplineSet
EndChar

StartChar: A
Encoding: 65 65 16
Width: 898
Flags: W
LayerCount: 2
Fore
SplineSet
640 762 m 0,0,1
 661 709 661 709 683 648 c 128,-1,2
 705 587 705 587 738 478.5 c 128,-1,3
 771 370 771 370 795.5 267 c 128,-1,4
 820 164 820 164 838.5 36.5 c 128,-1,5
 857 -91 857 -91 857 -200 c 1,6,-1
 676 -200 l 1,7,8
 655 -9 655 -9 609 178 c 0,9,10
 606 192 606 192 594.5 201 c 128,-1,11
 583 210 583 210 568 210 c 2,12,-1
 278 210 l 1,13,-1
 278 -200 l 1,14,-1
 97 -200 l 1,15,-1
 97 210 l 1,16,-1
 29 210 l 1,17,-1
 29 390 l 1,18,-1
 97 390 l 1,19,-1
 97 800 l 1,20,-1
 584 800 l 2,21,22
 603 800 603 800 618 789.5 c 128,-1,23
 633 779 633 779 640 762 c 0,0,1
278 390 m 1,24,-1
 485 390 l 2,25,26
 503 390 503 390 516 403 c 128,-1,27
 529 416 529 416 529 434 c 0,28,29
 529 442 529 442 526 450 c 0,30,31
 500 518 500 518 462 608 c 0,32,33
 457 620 457 620 444 620 c 2,34,-1
 278 620 l 1,35,-1
 278 390 l 1,24,-1
EndSplineSet
EndChar

StartChar: B
Encoding: 66 66 17
Width: 895
Flags: W
LayerCount: 2
Fore
SplineSet
851 683 m 2,0,-1
 851 445 l 2,1,2
 851 388 851 388 813 345 c 2,3,-1
 772 300 l 1,4,-1
 813 255 l 2,5,6
 851 212 851 212 851 154 c 2,7,-1
 851 -83 l 2,8,9
 851 -131 851 -131 817 -165.5 c 128,-1,10
 783 -200 783 -200 734 -200 c 2,11,-1
 108 -200 l 1,12,-1
 108 -199 l 1,13,-1
 95 -199 l 1,14,-1
 95 213 l 1,15,-1
 29 213 l 1,16,-1
 29 389 l 1,17,-1
 95 389 l 1,18,-1
 95 800 l 1,19,-1
 734 800 l 2,20,21
 783 800 783 800 817 765.5 c 128,-1,22
 851 731 851 731 851 683 c 2,0,-1
675 18 m 2,23,-1
 675 213 l 1,24,-1
 272 213 l 1,25,-1
 272 -24 l 1,26,-1
 633 -24 l 2,27,28
 650 -24 650 -24 662.5 -11.5 c 128,-1,29
 675 1 675 1 675 18 c 2,23,-1
675 389 m 1,30,-1
 675 582 l 2,31,32
 675 599 675 599 662.5 611.5 c 128,-1,33
 650 624 650 624 633 624 c 2,34,-1
 272 624 l 1,35,-1
 272 389 l 1,36,-1
 675 389 l 1,30,-1
EndSplineSet
EndChar

StartChar: C
Encoding: 67 67 18
Width: 901
Flags: W
LayerCount: 2
Fore
SplineSet
276 620 m 1,0,-1
 276 280 l 2,1,2
 276 75 276 75 475 5 c 0,3,4
 573 -29 573 -29 674 -24 c 1,5,-1
 803 -24 l 1,6,-1
 858 -200 l 1,7,-1
 678 -200 l 2,8,9
 553 -200 553 -200 454 -173.5 c 128,-1,10
 355 -147 355 -147 295.5 -105 c 128,-1,11
 236 -63 236 -63 193.5 -11.5 c 128,-1,12
 151 40 151 40 133 91 c 128,-1,13
 115 142 115 142 105 184.5 c 128,-1,14
 95 227 95 227 96 253 c 2,15,-1
 96 280 l 1,16,-1
 96 620 l 1,17,-1
 28 620 l 1,18,-1
 28 800 l 1,19,-1
 781 800 l 1,20,-1
 781 620 l 1,21,-1
 276 620 l 1,0,-1
EndSplineSet
EndChar

StartChar: D
Encoding: 68 68 19
Width: 898
Flags: W
LayerCount: 2
Fore
SplineSet
863 574 m 2,0,-1
 862 -200 l 1,1,-1
 35 -198 l 1,2,-1
 35 -22 l 1,3,-1
 101 -23 l 1,4,-1
 101 800 l 1,5,-1
 638 800 l 2,6,7
 731 800 731 800 797 734 c 128,-1,8
 863 668 863 668 863 575 c 2,9,10
 863 575 863 575 863 574 c 2,0,-1
277 624 m 1,11,-1
 277 -24 l 1,12,-1
 686 -26 l 1,13,-1
 687 398 l 2,14,15
 687 399 687 399 687 399 c 2,16,17
 687 492 687 492 621 558 c 128,-1,18
 555 624 555 624 461 624 c 2,19,-1
 277 624 l 1,11,-1
EndSplineSet
EndChar

StartChar: E
Encoding: 69 69 20
Width: 913
Flags: W
LayerCount: 2
Fore
SplineSet
871 623 m 1,0,-1
 282 623 l 1,1,-1
 282 386 l 1,2,-1
 506 386 l 1,3,-1
 506 209 l 1,4,-1
 282 209 l 1,5,-1
 282 -23 l 1,6,-1
 871 -23 l 1,7,-1
 871 -200 l 1,8,-1
 39 -200 l 1,9,-1
 39 -23 l 1,10,-1
 106 -23 l 1,11,-1
 106 209 l 1,12,-1
 39 209 l 1,13,-1
 39 386 l 1,14,-1
 106 386 l 1,15,-1
 106 623 l 1,16,-1
 39 623 l 1,17,-1
 39 800 l 1,18,-1
 871 800 l 1,19,-1
 871 623 l 1,0,-1
EndSplineSet
EndChar

StartChar: F
Encoding: 70 70 21
Width: 889
Flags: W
LayerCount: 2
Fore
SplineSet
862 623 m 1,0,-1
 273 623 l 1,1,-1
 273 386 l 1,2,-1
 497 386 l 1,3,-1
 497 209 l 1,4,-1
 273 209 l 1,5,-1
 273 -200 l 1,6,-1
 97 -200 l 1,7,-1
 97 209 l 1,8,-1
 30 209 l 1,9,-1
 30 386 l 1,10,-1
 97 386 l 1,11,-1
 97 623 l 1,12,-1
 30 623 l 1,13,-1
 30 800 l 1,14,-1
 862 800 l 1,15,-1
 862 623 l 1,0,-1
EndSplineSet
EndChar

StartChar: G
Encoding: 71 71 22
Width: 895
Flags: W
LayerCount: 2
Fore
SplineSet
855 620 m 1,0,-1
 273 620 l 1,1,-1
 273 280 l 2,2,3
 273 224 273 224 286.5 178.5 c 128,-1,4
 300 133 300 133 323.5 102.5 c 128,-1,5
 347 72 347 72 377 48.5 c 128,-1,6
 407 25 407 25 440.5 12.5 c 128,-1,7
 474 0 474 0 507 -8.5 c 128,-1,8
 540 -17 540 -17 570.5 -19 c 128,-1,9
 601 -21 601 -21 624 -21.5 c 128,-1,10
 647 -22 647 -22 661 -21 c 2,11,-1
 675 -20 l 1,12,-1
 675 261 l 1,13,-1
 535 261 l 1,14,-1
 535 441 l 1,15,-1
 855 441 l 1,16,-1
 855 -200 l 1,17,-1
 675 -200 l 2,18,19
 304 -200 304 -200 162 29 c 0,20,21
 94 139 94 139 92 268 c 0,22,23
 93 280 93 280 93 280 c 1,24,-1
 93 620 l 1,25,-1
 25 620 l 1,26,-1
 25 800 l 1,27,-1
 855 800 l 1,28,-1
 855 620 l 1,0,-1
EndSplineSet
EndChar

StartChar: H
Encoding: 72 72 23
Width: 901
Flags: W
LayerCount: 2
Fore
SplineSet
862 389 m 1,0,-1
 862 212 l 1,1,-1
 795 212 l 1,2,-1
 795 -200 l 1,3,-1
 618 -200 l 1,4,-1
 618 212 l 1,5,-1
 207 212 l 1,6,-1
 207 -200 l 1,7,-1
 30 -200 l 1,8,-1
 30 212 l 1,9,-1
 30 212 l 1,10,-1
 30 800 l 1,11,-1
 207 800 l 1,12,-1
 207 389 l 1,13,-1
 618 389 l 1,14,-1
 618 800 l 1,15,-1
 795 800 l 1,16,-1
 795 389 l 1,17,-1
 862 389 l 1,0,-1
EndSplineSet
EndChar

StartChar: I
Encoding: 73 73 24
Width: 379
Flags: W
LayerCount: 2
Fore
SplineSet
340 -24 m 1,0,-1
 340 -200 l 1,1,-1
 273 -200 l 1,2,-1
 237 -200 l 1,3,-1
 185 -200 l 1,4,-1
 166 -200 l 1,5,-1
 30 -200 l 1,6,-1
 30 -24 l 1,7,-1
 97 -24 l 1,8,-1
 97 624 l 1,9,-1
 30 624 l 1,10,-1
 30 800 l 1,11,-1
 185 800 l 1,12,-1
 185 799 l 1,13,-1
 185 800 l 1,14,-1
 340 800 l 1,15,-1
 340 624 l 1,16,-1
 273 624 l 1,17,-1
 273 -24 l 1,18,-1
 340 -24 l 1,0,-1
EndSplineSet
EndChar

StartChar: J
Encoding: 74 74 25
Width: 898
Flags: W
LayerCount: 2
Fore
SplineSet
31 620 m 1,0,-1
 31 800 l 1,1,-1
 861 800 l 1,2,-1
 861 620 l 1,3,-1
 793 620 l 1,4,-1
 793 280 l 2,5,6
 794 269 794 269 793.5 252 c 128,-1,7
 793 235 793 235 784 185 c 128,-1,8
 775 135 775 135 756.5 90 c 128,-1,9
 738 45 738 45 695.5 -10.5 c 128,-1,10
 653 -66 653 -66 593.5 -105.5 c 128,-1,11
 534 -145 534 -145 435 -172.5 c 128,-1,12
 336 -200 336 -200 211 -200 c 2,13,-1
 31 -200 l 1,14,-1
 31 261 l 1,15,-1
 211 261 l 1,16,-1
 211 -20 l 1,17,18
 220 -21 220 -21 234.5 -21.5 c 128,-1,19
 249 -22 249 -22 290.5 -20.5 c 128,-1,20
 332 -19 332 -19 370 -11.5 c 128,-1,21
 408 -4 408 -4 454.5 17 c 128,-1,22
 501 38 501 38 534 69 c 128,-1,23
 567 100 567 100 590 154.5 c 128,-1,24
 613 209 613 209 613 280 c 2,25,-1
 613 620 l 1,26,-1
 31 620 l 1,0,-1
EndSplineSet
EndChar

StartChar: K
Encoding: 75 75 26
Width: 895
Flags: W
LayerCount: 2
Fore
SplineSet
454 213 m 2,0,1
 454 208 454 208 456 199.5 c 128,-1,2
 458 191 458 191 468 167 c 128,-1,3
 478 143 478 143 493.5 121 c 128,-1,4
 509 99 509 99 540.5 72 c 128,-1,5
 572 45 572 45 612 26 c 128,-1,6
 652 7 652 7 715.5 -6.5 c 128,-1,7
 779 -20 779 -20 855 -20 c 1,8,-1
 855 -200 l 1,9,10
 845 -200 845 -200 828.5 -199.5 c 128,-1,11
 812 -199 812 -199 762.5 -193.5 c 128,-1,12
 713 -188 713 -188 666.5 -178.5 c 128,-1,13
 620 -169 620 -169 558.5 -149 c 128,-1,14
 497 -129 497 -129 447.5 -101 c 128,-1,15
 398 -73 398 -73 353 -28 c 128,-1,16
 308 17 308 17 284 73 c 0,17,18
 282 76 282 76 279 76 c 0,19,20
 274 76 274 76 274 71 c 2,21,-1
 274 70 l 1,22,-1
 274 -200 l 1,23,-1
 93 -200 l 1,24,-1
 93 210 l 1,25,-1
 25 210 l 1,26,-1
 25 390 l 1,27,-1
 93 390 l 1,28,-1
 93 800 l 1,29,-1
 274 800 l 1,30,-1
 274 264 l 2,31,32
 274 256 274 256 282 256 c 0,33,34
 286 256 286 256 289 260 c 2,35,-1
 656 800 l 1,36,-1
 853 800 l 1,37,-1
 454 213 l 2,0,1
EndSplineSet
EndChar

StartChar: L
Encoding: 76 76 27
Width: 895
Flags: W
LayerCount: 2
Fore
SplineSet
861 -23 m 1,0,-1
 861 -200 l 1,1,-1
 860 -200 l 1,2,-1
 684 -200 l 1,3,-1
 272 -200 l 1,4,-1
 95 -200 l 1,5,-1
 31 -200 l 1,6,-1
 31 -23 l 1,7,-1
 95 -23 l 1,8,-1
 95 800 l 1,9,-1
 272 800 l 1,10,-1
 272 -23 l 1,11,-1
 684 -23 l 1,12,-1
 684 213 l 1,13,-1
 860 213 l 1,14,-1
 860 -23 l 1,15,-1
 861 -23 l 1,0,-1
EndSplineSet
EndChar

StartChar: M
Encoding: 77 77 28
Width: 910
Flags: W
LayerCount: 2
Fore
SplineSet
868 798 m 1,0,-1
 868 622 l 1,1,-1
 800 622 l 1,2,-1
 800 -200 l 1,3,-1
 624 -200 l 1,4,-1
 624 622 l 1,5,-1
 540 622 l 1,6,-1
 540 387 l 1,7,-1
 364 387 l 1,8,-1
 364 622 l 1,9,-1
 285 622 l 1,10,-1
 285 -197 l 1,11,-1
 109 -197 l 1,12,-1
 109 622 l 1,13,-1
 36 622 l 1,14,-1
 36 798 l 1,15,-1
 624 798 l 1,16,-1
 624 800 l 1,17,-1
 800 800 l 1,18,-1
 800 798 l 1,19,-1
 868 798 l 1,0,-1
EndSplineSet
EndChar

StartChar: N
Encoding: 78 78 29
Width: 898
Flags: W
LayerCount: 2
Fore
SplineSet
865 798 m 1,0,-1
 865 622 l 1,1,-1
 797 622 l 1,2,-1
 797 -200 l 1,3,-1
 621 -200 l 1,4,-1
 621 622 l 1,5,-1
 282 622 l 1,6,-1
 282 -197 l 1,7,-1
 106 -197 l 1,8,-1
 106 622 l 1,9,-1
 33 622 l 1,10,-1
 33 798 l 1,11,-1
 621 798 l 1,12,-1
 621 800 l 1,13,-1
 797 800 l 1,14,-1
 797 798 l 1,15,-1
 865 798 l 1,0,-1
EndSplineSet
EndChar

StartChar: O
Encoding: 79 79 30
Width: 895
Flags: W
LayerCount: 2
Fore
SplineSet
856 389 m 1,0,-1
 856 213 l 1,1,-1
 791 213 l 1,2,-1
 791 -200 l 1,3,-1
 216 -199 l 2,4,5
 165 -199 165 -199 129.5 -163.5 c 128,-1,6
 94 -128 94 -128 94 -77 c 2,7,-1
 94 213 l 1,8,-1
 30 213 l 1,9,-1
 30 389 l 1,10,-1
 94 389 l 1,11,-1
 94 799 l 1,12,-1
 95 799 l 1,13,-1
 95 800 l 1,14,-1
 670 799 l 2,15,16
 720 799 720 799 755.5 763.5 c 128,-1,17
 791 728 791 728 791 678 c 2,18,-1
 791 389 l 1,19,-1
 856 389 l 1,0,-1
393 -23 m 2,20,-1
 615 -23 l 1,21,-1
 615 501 l 2,22,23
 615 551 615 551 579 587 c 128,-1,24
 543 623 543 623 493 623 c 2,25,-1
 271 623 l 1,26,-1
 271 389 l 1,27,-1
 271 99 l 2,28,29
 271 49 271 49 307 13 c 128,-1,30
 343 -23 343 -23 393 -23 c 2,20,-1
EndSplineSet
EndChar

StartChar: P
Encoding: 80 80 31
Width: 892
Flags: W
LayerCount: 2
Fore
SplineSet
278 -200 m 1,0,-1
 97 -200 l 1,1,-1
 97 210 l 1,2,-1
 29 210 l 1,3,-1
 29 390 l 1,4,-1
 97 390 l 1,5,-1
 97 800 l 1,6,-1
 857 800 l 1,7,-1
 857 303 l 2,8,9
 857 264 857 264 829.5 237 c 128,-1,10
 802 210 802 210 764 210 c 2,11,-1
 278 210 l 1,12,-1
 278 -200 l 1,0,-1
278 620 m 1,13,-1
 278 390 l 1,14,-1
 619 390 l 2,15,16
 643 390 643 390 660 407 c 128,-1,17
 677 424 677 424 677 448 c 2,18,-1
 677 620 l 1,19,-1
 278 620 l 1,13,-1
EndSplineSet
EndChar

StartChar: Q
Encoding: 81 81 32
Width: 769
Flags: W
LayerCount: 2
Fore
SplineSet
607 799 m 2,0,1
 657 799 657 799 693 763.5 c 128,-1,2
 729 728 729 728 729 678 c 2,3,-1
 729 -137 l 1,4,-1
 469 -136 l 1,5,-1
 469 -200 l 1,6,-1
 292 -200 l 1,7,-1
 292 -136 l 1,8,-1
 153 -136 l 2,9,10
 103 -136 103 -136 67 -100.5 c 128,-1,11
 31 -65 31 -65 31 -14 c 2,12,-1
 31 799 l 1,13,-1
 32 799 l 1,14,-1
 32 800 l 1,15,-1
 607 799 l 2,0,1
552 41 m 1,16,-1
 552 501 l 2,17,18
 552 551 552 551 516.5 587 c 128,-1,19
 481 623 481 623 430 623 c 2,20,-1
 209 623 l 1,21,-1
 209 389 l 1,22,-1
 209 162 l 2,23,24
 209 123 209 123 231.5 91.5 c 128,-1,25
 254 60 254 60 290 47 c 1,26,-1
 290 99 l 1,27,-1
 471 99 l 1,28,-1
 471 41 l 1,29,-1
 552 41 l 1,16,-1
EndSplineSet
EndChar

StartChar: R
Encoding: 82 82 33
Width: 898
Flags: W
LayerCount: 2
Fore
SplineSet
457 210 m 1,0,1
 457 205 457 205 458 197 c 128,-1,2
 459 189 459 189 467 165 c 128,-1,3
 475 141 475 141 488.5 119 c 128,-1,4
 502 97 502 97 532.5 71 c 128,-1,5
 563 45 563 45 603.5 25.5 c 128,-1,6
 644 6 644 6 710 -7 c 128,-1,7
 776 -20 776 -20 858 -20 c 1,8,-1
 858 -200 l 1,9,10
 850 -200 850 -200 837.5 -199.5 c 128,-1,11
 825 -199 825 -199 785 -195.5 c 128,-1,12
 745 -192 745 -192 706.5 -185 c 128,-1,13
 668 -178 668 -178 616 -163.5 c 128,-1,14
 564 -149 564 -149 519 -129.5 c 128,-1,15
 474 -110 474 -110 428 -78.5 c 128,-1,16
 382 -47 382 -47 349.5 -7.5 c 128,-1,17
 317 32 317 32 297 88 c 128,-1,18
 277 144 277 144 277 210 c 1,19,-1
 277 -200 l 1,20,-1
 96 -200 l 1,21,-1
 96 210 l 1,22,-1
 28 210 l 1,23,-1
 28 390 l 1,24,-1
 96 390 l 1,25,-1
 96 800 l 1,26,-1
 856 800 l 1,27,-1
 856 303 l 2,28,29
 856 264 856 264 829 237 c 128,-1,30
 802 210 802 210 763 210 c 2,31,-1
 457 210 l 1,0,1
277 620 m 1,32,-1
 277 390 l 1,33,-1
 618 390 l 2,34,35
 642 390 642 390 659 407 c 128,-1,36
 676 424 676 424 676 448 c 2,37,-1
 676 620 l 1,38,-1
 277 620 l 1,32,-1
EndSplineSet
EndChar

StartChar: S
Encoding: 83 83 34
Width: 904
Flags: W
LayerCount: 2
Fore
SplineSet
801 -23 m 1,0,-1
 865 -23 l 1,1,-1
 865 -200 l 1,2,-1
 101 -200 l 1,3,-1
 101 -23 l 1,4,-1
 624 -23 l 1,5,-1
 624 214 l 1,6,-1
 101 213 l 1,7,-1
 101 623 l 1,8,-1
 33 623 l 1,9,-1
 33 800 l 1,10,-1
 801 800 l 1,11,-1
 801 623 l 1,12,-1
 278 623 l 1,13,-1
 278 390 l 1,14,-1
 801 392 l 1,15,-1
 801 -23 l 1,0,-1
EndSplineSet
EndChar

StartChar: T
Encoding: 84 84 35
Width: 898
Flags: W
LayerCount: 2
Fore
SplineSet
859 799 m 1,0,-1
 859 623 l 1,1,-1
 685 623 l 1,2,-1
 533 623 l 1,3,-1
 533 -200 l 1,4,-1
 357 -200 l 1,5,-1
 357 623 l 1,6,-1
 31 623 l 1,7,-1
 31 799 l 1,8,-1
 357 799 l 1,9,-1
 357 800 l 1,10,-1
 533 800 l 1,11,-1
 533 799 l 1,12,-1
 859 799 l 1,0,-1
30 553 m 1,13,-1
 30 623 l 1,14,-1
 207 623 l 1,15,-1
 207 553 l 1,16,-1
 30 553 l 1,13,-1
685 553 m 1,17,-1
 685 623 l 1,18,-1
 862 623 l 1,19,-1
 862 553 l 1,20,-1
 685 553 l 1,17,-1
EndSplineSet
EndChar

StartChar: U
Encoding: 85 85 36
Width: 898
Flags: W
LayerCount: 2
Fore
SplineSet
789 -20 m 1,0,-1
 859 -20 l 1,1,-1
 859 -200 l 1,2,-1
 29 -200 l 1,3,-1
 29 592 l 2,4,5
 29 609 29 609 28.5 634 c 128,-1,6
 28 659 28 659 27.5 673.5 c 128,-1,7
 27 688 27 688 28 708 c 128,-1,8
 29 728 29 728 32 739.5 c 128,-1,9
 35 751 35 751 41.5 764 c 128,-1,10
 48 777 48 777 58 784 c 128,-1,11
 68 791 68 791 84 795.5 c 128,-1,12
 100 800 100 800 121 800 c 2,13,-1
 423 800 l 1,14,-1
 423 620 l 1,15,-1
 266 620 l 2,16,17
 245 620 245 620 230 605 c 128,-1,18
 215 590 215 590 215 568 c 2,19,-1
 215 -20 l 1,20,-1
 609 -20 l 1,21,-1
 609 800 l 1,22,-1
 789 800 l 1,23,-1
 789 -20 l 1,0,-1
EndSplineSet
EndChar

StartChar: V
Encoding: 86 86 37
Width: 901
Flags: W
LayerCount: 2
Fore
SplineSet
687 798 m 1,0,-1
 863 798 l 1,1,2
 828 565 828 565 785.5 396 c 128,-1,3
 743 227 743 227 693 114 c 128,-1,4
 643 1 643 1 578.5 -67.5 c 128,-1,5
 514 -136 514 -136 443 -165.5 c 128,-1,6
 372 -195 372 -195 280 -199 c 1,7,-1
 107 -199 l 1,8,-1
 35 -200 l 1,9,-1
 35 -24 l 1,10,-1
 107 -23 l 1,11,-1
 107 800 l 1,12,-1
 283 800 l 1,13,-1
 283 -23 l 1,14,15
 329 -23 329 -23 372 4.5 c 128,-1,16
 415 32 415 32 448.5 75.5 c 128,-1,17
 482 119 482 119 513.5 186.5 c 128,-1,18
 545 254 545 254 568.5 321.5 c 128,-1,19
 592 389 592 389 615 477.5 c 128,-1,20
 638 566 638 566 654 637.5 c 128,-1,21
 670 709 670 709 687 798 c 1,0,-1
EndSplineSet
EndChar

StartChar: W
Encoding: 87 87 38
Width: 1485
Flags: W
LayerCount: 2
Fore
SplineSet
1268 808 m 1,0,-1
 1443 808 l 1,1,2
 1408 575 1408 575 1365.5 406 c 128,-1,3
 1323 237 1323 237 1273.5 124 c 128,-1,4
 1224 11 1224 11 1159.5 -57 c 128,-1,5
 1095 -125 1095 -125 1024 -154.5 c 128,-1,6
 953 -184 953 -184 861 -188 c 1,7,-1
 688 -188 l 1,8,-1
 688 110 l 1,9,10
 615 -48 615 -48 517 -116 c 128,-1,11
 419 -184 419 -184 282 -190 c 1,12,-1
 110 -190 l 1,13,-1
 38 -191 l 1,14,-1
 38 -15 l 1,15,-1
 110 -14 l 1,16,-1
 110 807 l 1,17,-1
 285 807 l 1,18,-1
 285 -14 l 1,19,20
 332 -14 332 -14 374 13 c 128,-1,21
 416 40 416 40 450 84 c 128,-1,22
 484 128 484 128 515.5 195 c 128,-1,23
 547 262 547 262 570 329 c 128,-1,24
 593 396 593 396 616.5 484 c 128,-1,25
 640 572 640 572 655.5 644 c 128,-1,26
 671 716 671 716 688 805 c 1,27,-1
 688 809 l 1,28,-1
 864 809 l 1,29,-1
 864 806 l 1,30,31
 864 806 864 806 864 805.5 c 128,-1,32
 864 805 864 805 864 804 c 2,33,-1
 864 -12 l 1,34,35
 910 -12 910 -12 952.5 15 c 128,-1,36
 995 42 995 42 1029 86 c 128,-1,37
 1063 130 1063 130 1094.5 197 c 128,-1,38
 1126 264 1126 264 1149 331.5 c 128,-1,39
 1172 399 1172 399 1195.5 487 c 128,-1,40
 1219 575 1219 575 1234.5 647 c 128,-1,41
 1250 719 1250 719 1268 808 c 1,0,-1
EndSplineSet
EndChar

StartChar: X
Encoding: 88 88 39
Width: 904
Flags: W
LayerCount: 2
Fore
SplineSet
864 -200 m 1,0,-1
 690 -200 l 1,1,2
 690 -193 690 -193 690.5 -180 c 128,-1,3
 691 -167 691 -167 689 -126.5 c 128,-1,4
 687 -86 687 -86 681 -45 c 128,-1,5
 675 -4 675 -4 660 54 c 128,-1,6
 645 112 645 112 622.5 166 c 128,-1,7
 600 220 600 220 561.5 281 c 128,-1,8
 523 342 523 342 474 393 c 1,9,10
 417 322 417 322 377.5 235 c 128,-1,11
 338 148 338 148 321.5 74 c 128,-1,12
 305 0 305 0 297 -63.5 c 128,-1,13
 289 -127 289 -127 289 -163 c 2,14,-1
 290 -200 l 1,15,-1
 116 -200 l 1,16,17
 116 244 116 244 329 510 c 1,18,19
 201 588 201 588 34 624 c 1,20,-1
 34 800 l 1,21,22
 42 799 42 799 58 797 c 128,-1,23
 74 795 74 795 122.5 784 c 128,-1,24
 171 773 171 773 219 757 c 128,-1,25
 267 741 267 741 333.5 710 c 128,-1,26
 400 679 400 679 460 639 c 1,27,28
 612 759 612 759 791 795 c 0,29,30
 822 800 822 800 822 800 c 1,31,-1
 822 624 l 1,32,33
 701 588 701 588 605 519 c 1,34,35
 864 252 864 252 864 -200 c 1,0,-1
EndSplineSet
EndChar

StartChar: Y
Encoding: 89 89 40
Width: 901
Flags: W
LayerCount: 2
Fore
SplineSet
859 800 m 1,0,-1
 859 341 l 2,1,2
 859 239 859 239 786.5 166.5 c 128,-1,3
 714 94 714 94 612 94 c 2,4,-1
 535 94 l 1,5,-1
 535 -200 l 1,6,-1
 357 -200 l 1,7,-1
 357 94 l 1,8,-1
 280 94 l 2,9,10
 178 94 178 94 105.5 166.5 c 128,-1,11
 33 239 33 239 33 341 c 2,12,-1
 33 800 l 1,13,-1
 211 800 l 1,14,-1
 211 351 l 2,15,16
 211 318 211 318 234 294.5 c 128,-1,17
 257 271 257 271 290 271 c 2,18,-1
 358 271 l 1,19,-1
 358 334 l 1,20,-1
 534 334 l 1,21,-1
 534 271 l 1,22,-1
 602 271 l 2,23,24
 635 271 635 271 658 294.5 c 128,-1,25
 681 318 681 318 681 351 c 2,26,-1
 681 800 l 1,27,-1
 859 800 l 1,0,-1
EndSplineSet
EndChar

StartChar: Z
Encoding: 90 90 41
Width: 892
Flags: W
LayerCount: 2
Fore
SplineSet
365 -20 m 1,0,-1
 852 -20 l 1,1,-1
 852 -200 l 1,2,-1
 96 -200 l 1,3,-1
 96 -20 l 1,4,-1
 161 -20 l 1,5,-1
 506 620 l 1,6,-1
 22 620 l 1,7,-1
 22 800 l 1,8,-1
 778 800 l 1,9,-1
 778 620 l 1,10,-1
 712 620 l 1,11,-1
 365 -20 l 1,0,-1
EndSplineSet
EndChar

StartChar: a
Encoding: 97 97 42
Width: 898
Flags: W
LayerCount: 2
Fore
SplineSet
646 762 m 0,0,1
 667 709 667 709 689 648 c 128,-1,2
 711 587 711 587 744 478.5 c 128,-1,3
 777 370 777 370 801.5 267 c 128,-1,4
 826 164 826 164 844.5 36.5 c 128,-1,5
 863 -91 863 -91 863 -200 c 1,6,-1
 682 -200 l 1,7,8
 661 -9 661 -9 615 178 c 0,9,10
 612 192 612 192 600.5 201 c 128,-1,11
 589 210 589 210 574 210 c 2,12,-1
 284 210 l 1,13,-1
 284 -200 l 1,14,-1
 103 -200 l 1,15,-1
 103 210 l 1,16,-1
 35 210 l 1,17,-1
 35 390 l 1,18,-1
 103 390 l 1,19,-1
 103 800 l 1,20,-1
 590 800 l 2,21,22
 609 800 609 800 624 789.5 c 128,-1,23
 639 779 639 779 646 762 c 0,0,1
284 390 m 1,24,-1
 491 390 l 2,25,26
 509 390 509 390 522 403 c 128,-1,27
 535 416 535 416 535 434 c 0,28,29
 535 442 535 442 532 450 c 0,30,31
 506 518 506 518 468 608 c 0,32,33
 463 620 463 620 450 620 c 2,34,-1
 284 620 l 1,35,-1
 284 390 l 1,24,-1
EndSplineSet
EndChar

StartChar: b
Encoding: 98 98 43
Width: 895
Flags: W
LayerCount: 2
Fore
SplineSet
859 683 m 2,0,-1
 859 445 l 2,1,2
 859 388 859 388 820 345 c 2,3,-1
 780 300 l 1,4,-1
 820 255 l 2,5,6
 859 212 859 212 859 154 c 2,7,-1
 859 -83 l 2,8,9
 859 -131 859 -131 824.5 -165.5 c 128,-1,10
 790 -200 790 -200 741 -200 c 2,11,-1
 115 -200 l 1,12,-1
 115 -199 l 1,13,-1
 103 -199 l 1,14,-1
 103 213 l 1,15,-1
 36 213 l 1,16,-1
 36 389 l 1,17,-1
 103 389 l 1,18,-1
 103 800 l 1,19,-1
 741 800 l 2,20,21
 790 800 790 800 824.5 765.5 c 128,-1,22
 859 731 859 731 859 683 c 2,0,-1
683 18 m 2,23,-1
 683 213 l 1,24,-1
 279 213 l 1,25,-1
 279 -24 l 1,26,-1
 640 -24 l 2,27,28
 658 -24 658 -24 670.5 -11.5 c 128,-1,29
 683 1 683 1 683 18 c 2,23,-1
683 389 m 1,30,-1
 683 582 l 2,31,32
 683 599 683 599 670.5 611.5 c 128,-1,33
 658 624 658 624 640 624 c 2,34,-1
 279 624 l 1,35,-1
 279 389 l 1,36,-1
 683 389 l 1,30,-1
EndSplineSet
EndChar

StartChar: c
Encoding: 99 99 44
Width: 901
Flags: W
LayerCount: 2
Fore
SplineSet
283 620 m 1,0,-1
 283 280 l 2,1,2
 283 75 283 75 483 5 c 0,3,4
 580 -29 580 -29 682 -24 c 1,5,-1
 810 -24 l 1,6,-1
 865 -200 l 1,7,-1
 685 -200 l 2,8,9
 561 -200 561 -200 462 -173.5 c 128,-1,10
 363 -147 363 -147 303.5 -105 c 128,-1,11
 244 -63 244 -63 201 -11.5 c 128,-1,12
 158 40 158 40 140 91 c 128,-1,13
 122 142 122 142 112.5 184.5 c 128,-1,14
 103 227 103 227 103 253 c 2,15,-1
 103 280 l 1,16,-1
 103 620 l 1,17,-1
 36 620 l 1,18,-1
 36 800 l 1,19,-1
 789 800 l 1,20,-1
 789 620 l 1,21,-1
 283 620 l 1,0,-1
EndSplineSet
EndChar

StartChar: d
Encoding: 100 100 45
Width: 898
Flags: W
LayerCount: 2
Fore
SplineSet
863 574 m 2,0,-1
 862 -200 l 1,1,-1
 35 -198 l 1,2,-1
 35 -22 l 1,3,-1
 101 -23 l 1,4,-1
 101 800 l 1,5,-1
 638 800 l 2,6,7
 731 800 731 800 797 734 c 128,-1,8
 863 668 863 668 863 575 c 2,9,10
 863 575 863 575 863 574 c 2,0,-1
277 624 m 1,11,-1
 277 -24 l 1,12,-1
 686 -26 l 1,13,-1
 687 398 l 2,14,15
 687 399 687 399 687 399 c 2,16,17
 687 492 687 492 621 558 c 128,-1,18
 555 624 555 624 461 624 c 2,19,-1
 277 624 l 1,11,-1
EndSplineSet
EndChar

StartChar: e
Encoding: 101 101 46
Width: 913
Flags: W
LayerCount: 2
Fore
SplineSet
872 623 m 1,0,-1
 284 623 l 1,1,-1
 284 386 l 1,2,-1
 508 386 l 1,3,-1
 508 209 l 1,4,-1
 284 209 l 1,5,-1
 284 -23 l 1,6,-1
 872 -23 l 1,7,-1
 872 -200 l 1,8,-1
 41 -200 l 1,9,-1
 41 -23 l 1,10,-1
 107 -23 l 1,11,-1
 107 209 l 1,12,-1
 41 209 l 1,13,-1
 41 386 l 1,14,-1
 107 386 l 1,15,-1
 107 623 l 1,16,-1
 41 623 l 1,17,-1
 41 800 l 1,18,-1
 872 800 l 1,19,-1
 872 623 l 1,0,-1
EndSplineSet
EndChar

StartChar: f
Encoding: 102 102 47
Width: 889
Flags: W
LayerCount: 2
Fore
SplineSet
860 623 m 1,0,-1
 272 623 l 1,1,-1
 272 386 l 1,2,-1
 496 386 l 1,3,-1
 496 209 l 1,4,-1
 272 209 l 1,5,-1
 272 -200 l 1,6,-1
 95 -200 l 1,7,-1
 95 209 l 1,8,-1
 29 209 l 1,9,-1
 29 386 l 1,10,-1
 95 386 l 1,11,-1
 95 623 l 1,12,-1
 29 623 l 1,13,-1
 29 800 l 1,14,-1
 860 800 l 1,15,-1
 860 623 l 1,0,-1
EndSplineSet
EndChar

StartChar: g
Encoding: 103 103 48
Width: 895
Flags: W
LayerCount: 2
Fore
SplineSet
862 620 m 1,0,-1
 280 620 l 1,1,-1
 280 280 l 2,2,3
 280 224 280 224 294 178.5 c 128,-1,4
 308 133 308 133 331 102.5 c 128,-1,5
 354 72 354 72 384.5 48.5 c 128,-1,6
 415 25 415 25 448 12.5 c 128,-1,7
 481 0 481 0 514.5 -8.5 c 128,-1,8
 548 -17 548 -17 578 -19 c 128,-1,9
 608 -21 608 -21 631.5 -21.5 c 128,-1,10
 655 -22 655 -22 668 -21 c 2,11,-1
 682 -20 l 1,12,-1
 682 261 l 1,13,-1
 543 261 l 1,14,-1
 543 441 l 1,15,-1
 862 441 l 1,16,-1
 862 -200 l 1,17,-1
 682 -200 l 2,18,19
 311 -200 311 -200 170 29 c 0,20,21
 101 139 101 139 100 268 c 0,22,23
 100 280 100 280 100 280 c 1,24,-1
 100 620 l 1,25,-1
 33 620 l 1,26,-1
 33 800 l 1,27,-1
 862 800 l 1,28,-1
 862 620 l 1,0,-1
EndSplineSet
EndChar

StartChar: h
Encoding: 104 104 49
Width: 901
Flags: W
LayerCount: 2
Fore
SplineSet
866 389 m 1,0,-1
 866 212 l 1,1,-1
 799 212 l 1,2,-1
 799 -200 l 1,3,-1
 622 -200 l 1,4,-1
 622 212 l 1,5,-1
 212 212 l 1,6,-1
 212 -200 l 1,7,-1
 35 -200 l 1,8,-1
 35 212 l 1,9,-1
 35 212 l 1,10,-1
 35 800 l 1,11,-1
 212 800 l 1,12,-1
 212 389 l 1,13,-1
 622 389 l 1,14,-1
 622 800 l 1,15,-1
 799 800 l 1,16,-1
 799 389 l 1,17,-1
 866 389 l 1,0,-1
EndSplineSet
EndChar

StartChar: i
Encoding: 105 105 50
Width: 379
Flags: W
LayerCount: 2
Fore
SplineSet
344 -24 m 1,0,-1
 344 -200 l 1,1,-1
 278 -200 l 1,2,-1
 242 -200 l 1,3,-1
 190 -200 l 1,4,-1
 170 -200 l 1,5,-1
 35 -200 l 1,6,-1
 35 -24 l 1,7,-1
 101 -24 l 1,8,-1
 101 624 l 1,9,-1
 35 624 l 1,10,-1
 35 800 l 1,11,-1
 190 800 l 1,12,-1
 190 799 l 1,13,-1
 190 800 l 1,14,-1
 344 800 l 1,15,-1
 344 624 l 1,16,-1
 278 624 l 1,17,-1
 278 -24 l 1,18,-1
 344 -24 l 1,0,-1
EndSplineSet
EndChar

StartChar: j
Encoding: 106 106 51
Width: 898
Flags: W
LayerCount: 2
Fore
SplineSet
34 620 m 1,0,-1
 34 800 l 1,1,-1
 864 800 l 1,2,-1
 864 620 l 1,3,-1
 796 620 l 1,4,-1
 796 280 l 2,5,6
 797 269 797 269 796.5 252 c 128,-1,7
 796 235 796 235 787 185 c 128,-1,8
 778 135 778 135 759.5 90 c 128,-1,9
 741 45 741 45 698.5 -10.5 c 128,-1,10
 656 -66 656 -66 596.5 -105.5 c 128,-1,11
 537 -145 537 -145 438 -172.5 c 128,-1,12
 339 -200 339 -200 214 -200 c 2,13,-1
 34 -200 l 1,14,-1
 34 261 l 1,15,-1
 214 261 l 1,16,-1
 214 -20 l 1,17,18
 223 -21 223 -21 237.5 -21.5 c 128,-1,19
 252 -22 252 -22 293.5 -20.5 c 128,-1,20
 335 -19 335 -19 373 -11.5 c 128,-1,21
 411 -4 411 -4 457.5 17 c 128,-1,22
 504 38 504 38 537 69 c 128,-1,23
 570 100 570 100 593 154.5 c 128,-1,24
 616 209 616 209 616 280 c 2,25,-1
 616 620 l 1,26,-1
 34 620 l 1,0,-1
EndSplineSet
EndChar

StartChar: k
Encoding: 107 107 52
Width: 895
Flags: W
LayerCount: 2
Fore
SplineSet
461 213 m 2,0,1
 462 208 462 208 463.5 199.5 c 128,-1,2
 465 191 465 191 475.5 167 c 128,-1,3
 486 143 486 143 501.5 121 c 128,-1,4
 517 99 517 99 548 72 c 128,-1,5
 579 45 579 45 619 26 c 128,-1,6
 659 7 659 7 722.5 -6.5 c 128,-1,7
 786 -20 786 -20 862 -20 c 1,8,-1
 862 -200 l 1,9,10
 853 -200 853 -200 836.5 -199.5 c 128,-1,11
 820 -199 820 -199 770.5 -193.5 c 128,-1,12
 721 -188 721 -188 674 -178.5 c 128,-1,13
 627 -169 627 -169 566 -149 c 128,-1,14
 505 -129 505 -129 455.5 -101 c 128,-1,15
 406 -73 406 -73 360.5 -28 c 128,-1,16
 315 17 315 17 291 73 c 0,17,18
 290 76 290 76 286 76 c 0,19,20
 281 76 281 76 281 71 c 2,21,-1
 281 70 l 1,22,-1
 281 -200 l 1,23,-1
 101 -200 l 1,24,-1
 101 210 l 1,25,-1
 33 210 l 1,26,-1
 33 390 l 1,27,-1
 101 390 l 1,28,-1
 101 800 l 1,29,-1
 281 800 l 1,30,-1
 281 264 l 2,31,32
 281 256 281 256 289 256 c 0,33,34
 294 256 294 256 296 260 c 2,35,-1
 664 800 l 1,36,-1
 861 800 l 1,37,-1
 461 213 l 2,0,1
EndSplineSet
EndChar

StartChar: l
Encoding: 108 108 53
Width: 895
Flags: W
LayerCount: 2
Fore
SplineSet
862 -23 m 1,0,-1
 862 -200 l 1,1,-1
 862 -200 l 1,2,-1
 685 -200 l 1,3,-1
 274 -200 l 1,4,-1
 97 -200 l 1,5,-1
 33 -200 l 1,6,-1
 33 -23 l 1,7,-1
 97 -23 l 1,8,-1
 97 800 l 1,9,-1
 274 800 l 1,10,-1
 274 -23 l 1,11,-1
 685 -23 l 1,12,-1
 685 213 l 1,13,-1
 862 213 l 1,14,-1
 862 -23 l 1,0,-1
EndSplineSet
EndChar

StartChar: m
Encoding: 109 109 54
Width: 910
Flags: W
LayerCount: 2
Fore
SplineSet
871 798 m 1,0,-1
 871 622 l 1,1,-1
 803 622 l 1,2,-1
 803 -200 l 1,3,-1
 627 -200 l 1,4,-1
 627 622 l 1,5,-1
 543 622 l 1,6,-1
 543 387 l 1,7,-1
 367 387 l 1,8,-1
 367 622 l 1,9,-1
 288 622 l 1,10,-1
 288 -197 l 1,11,-1
 112 -197 l 1,12,-1
 112 622 l 1,13,-1
 39 622 l 1,14,-1
 39 798 l 1,15,-1
 627 798 l 1,16,-1
 627 800 l 1,17,-1
 803 800 l 1,18,-1
 803 798 l 1,19,-1
 871 798 l 1,0,-1
EndSplineSet
EndChar

StartChar: n
Encoding: 110 110 55
Width: 898
Flags: W
LayerCount: 2
Fore
SplineSet
865 798 m 1,0,-1
 865 622 l 1,1,-1
 797 622 l 1,2,-1
 797 -200 l 1,3,-1
 621 -200 l 1,4,-1
 621 622 l 1,5,-1
 282 622 l 1,6,-1
 282 -197 l 1,7,-1
 106 -197 l 1,8,-1
 106 622 l 1,9,-1
 33 622 l 1,10,-1
 33 798 l 1,11,-1
 621 798 l 1,12,-1
 621 800 l 1,13,-1
 797 800 l 1,14,-1
 797 798 l 1,15,-1
 865 798 l 1,0,-1
EndSplineSet
EndChar

StartChar: o
Encoding: 111 111 56
Width: 895
Flags: W
LayerCount: 2
Fore
SplineSet
861 389 m 1,0,-1
 861 213 l 1,1,-1
 796 213 l 1,2,-1
 796 -200 l 1,3,-1
 220 -199 l 2,4,5
 170 -199 170 -199 134.5 -163.5 c 128,-1,6
 99 -128 99 -128 99 -77 c 2,7,-1
 99 213 l 1,8,-1
 34 213 l 1,9,-1
 34 389 l 1,10,-1
 99 389 l 1,11,-1
 99 799 l 1,12,-1
 99 800 l 1,13,-1
 674 799 l 2,14,15
 724 799 724 799 760 763.5 c 128,-1,16
 796 728 796 728 796 678 c 2,17,-1
 796 389 l 1,18,-1
 861 389 l 1,0,-1
398 -23 m 2,19,-1
 619 -23 l 1,20,-1
 619 501 l 2,21,22
 619 551 619 551 583.5 587 c 128,-1,23
 548 623 548 623 497 623 c 2,24,-1
 276 623 l 1,25,-1
 276 389 l 1,26,-1
 276 99 l 2,27,28
 276 49 276 49 311.5 13 c 128,-1,29
 347 -23 347 -23 398 -23 c 2,19,-1
EndSplineSet
EndChar

StartChar: p
Encoding: 112 112 57
Width: 892
Flags: W
LayerCount: 2
Fore
SplineSet
281 -200 m 1,0,-1
 100 -200 l 1,1,-1
 100 210 l 1,2,-1
 32 210 l 1,3,-1
 32 390 l 1,4,-1
 100 390 l 1,5,-1
 100 800 l 1,6,-1
 860 800 l 1,7,-1
 860 303 l 2,8,9
 860 264 860 264 832.5 237 c 128,-1,10
 805 210 805 210 767 210 c 2,11,-1
 281 210 l 1,12,-1
 281 -200 l 1,0,-1
281 620 m 1,13,-1
 281 390 l 1,14,-1
 622 390 l 2,15,16
 646 390 646 390 663 407 c 128,-1,17
 680 424 680 424 680 448 c 2,18,-1
 680 620 l 1,19,-1
 281 620 l 1,13,-1
EndSplineSet
EndChar

StartChar: q
Encoding: 113 113 58
Width: 769
Flags: W
LayerCount: 2
Fore
SplineSet
611 799 m 2,0,1
 662 799 662 799 697.5 763.5 c 128,-1,2
 733 728 733 728 733 678 c 2,3,-1
 733 -137 l 1,4,-1
 473 -136 l 1,5,-1
 473 -200 l 1,6,-1
 297 -200 l 1,7,-1
 297 -136 l 1,8,-1
 158 -136 l 2,9,10
 107 -136 107 -136 71.5 -100.5 c 128,-1,11
 36 -65 36 -65 36 -14 c 2,12,-1
 36 799 l 1,13,-1
 37 799 l 1,14,-1
 37 800 l 1,15,-1
 611 799 l 2,0,1
557 41 m 1,16,-1
 557 501 l 2,17,18
 557 551 557 551 521 587 c 128,-1,19
 485 623 485 623 435 623 c 2,20,-1
 213 623 l 1,21,-1
 213 389 l 1,22,-1
 213 162 l 2,23,24
 213 123 213 123 236 91.5 c 128,-1,25
 259 60 259 60 295 47 c 1,26,-1
 295 99 l 1,27,-1
 475 99 l 1,28,-1
 475 41 l 1,29,-1
 557 41 l 1,16,-1
EndSplineSet
EndChar

StartChar: r
Encoding: 114 114 59
Width: 898
Flags: W
LayerCount: 2
Fore
SplineSet
463 210 m 1,0,1
 463 205 463 205 464 197 c 128,-1,2
 465 189 465 189 473 165 c 128,-1,3
 481 141 481 141 494.5 119 c 128,-1,4
 508 97 508 97 538.5 71 c 128,-1,5
 569 45 569 45 609.5 25.5 c 128,-1,6
 650 6 650 6 716 -7 c 128,-1,7
 782 -20 782 -20 864 -20 c 1,8,-1
 864 -200 l 1,9,10
 856 -200 856 -200 843.5 -199.5 c 128,-1,11
 831 -199 831 -199 791 -195.5 c 128,-1,12
 751 -192 751 -192 712.5 -185 c 128,-1,13
 674 -178 674 -178 622 -163.5 c 128,-1,14
 570 -149 570 -149 525 -129.5 c 128,-1,15
 480 -110 480 -110 434 -78.5 c 128,-1,16
 388 -47 388 -47 355.5 -7.5 c 128,-1,17
 323 32 323 32 303 88 c 128,-1,18
 283 144 283 144 283 210 c 1,19,-1
 283 -200 l 1,20,-1
 102 -200 l 1,21,-1
 102 210 l 1,22,-1
 34 210 l 1,23,-1
 34 390 l 1,24,-1
 102 390 l 1,25,-1
 102 800 l 1,26,-1
 862 800 l 1,27,-1
 862 303 l 2,28,29
 862 264 862 264 835 237 c 128,-1,30
 808 210 808 210 769 210 c 2,31,-1
 463 210 l 1,0,1
283 620 m 1,32,-1
 283 390 l 1,33,-1
 624 390 l 2,34,35
 648 390 648 390 665 407 c 128,-1,36
 682 424 682 424 682 448 c 2,37,-1
 682 620 l 1,38,-1
 283 620 l 1,32,-1
EndSplineSet
EndChar

StartChar: s
Encoding: 115 115 60
Width: 904
Flags: W
LayerCount: 2
Fore
SplineSet
804 -23 m 1,0,-1
 868 -23 l 1,1,-1
 868 -200 l 1,2,-1
 104 -200 l 1,3,-1
 104 -23 l 1,4,-1
 627 -23 l 1,5,-1
 627 214 l 1,6,-1
 104 213 l 1,7,-1
 104 623 l 1,8,-1
 36 623 l 1,9,-1
 36 800 l 1,10,-1
 804 800 l 1,11,-1
 804 623 l 1,12,-1
 281 623 l 1,13,-1
 281 390 l 1,14,-1
 804 392 l 1,15,-1
 804 -23 l 1,0,-1
EndSplineSet
EndChar

StartChar: t
Encoding: 116 116 61
Width: 898
Flags: W
LayerCount: 2
Fore
SplineSet
862 799 m 1,0,-1
 862 623 l 1,1,-1
 688 623 l 1,2,-1
 536 623 l 1,3,-1
 536 -200 l 1,4,-1
 360 -200 l 1,5,-1
 360 623 l 1,6,-1
 34 623 l 1,7,-1
 34 799 l 1,8,-1
 360 799 l 1,9,-1
 360 800 l 1,10,-1
 536 800 l 1,11,-1
 536 799 l 1,12,-1
 862 799 l 1,0,-1
33 553 m 1,13,-1
 33 623 l 1,14,-1
 210 623 l 1,15,-1
 210 553 l 1,16,-1
 33 553 l 1,13,-1
688 553 m 1,17,-1
 688 623 l 1,18,-1
 865 623 l 1,19,-1
 865 553 l 1,20,-1
 688 553 l 1,17,-1
EndSplineSet
EndChar

StartChar: u
Encoding: 117 117 62
Width: 898
Flags: W
LayerCount: 2
Fore
SplineSet
795 -20 m 1,0,-1
 865 -20 l 1,1,-1
 865 -200 l 1,2,-1
 35 -200 l 1,3,-1
 35 592 l 2,4,5
 35 609 35 609 34.5 634 c 128,-1,6
 34 659 34 659 33.5 673.5 c 128,-1,7
 33 688 33 688 34 708 c 128,-1,8
 35 728 35 728 38 739.5 c 128,-1,9
 41 751 41 751 47.5 764 c 128,-1,10
 54 777 54 777 64 784 c 128,-1,11
 74 791 74 791 90 795.5 c 128,-1,12
 106 800 106 800 127 800 c 2,13,-1
 429 800 l 1,14,-1
 429 620 l 1,15,-1
 272 620 l 2,16,17
 251 620 251 620 236 605 c 128,-1,18
 221 590 221 590 221 568 c 2,19,-1
 221 -20 l 1,20,-1
 615 -20 l 1,21,-1
 615 800 l 1,22,-1
 795 800 l 1,23,-1
 795 -20 l 1,0,-1
EndSplineSet
EndChar

StartChar: v
Encoding: 118 118 63
Width: 901
Flags: W
LayerCount: 2
Fore
SplineSet
689 798 m 1,0,-1
 865 798 l 1,1,2
 830 565 830 565 787 396 c 128,-1,3
 744 227 744 227 694.5 114 c 128,-1,4
 645 1 645 1 580.5 -67.5 c 128,-1,5
 516 -136 516 -136 445 -165.5 c 128,-1,6
 374 -195 374 -195 281 -199 c 1,7,-1
 109 -199 l 1,8,-1
 36 -200 l 1,9,-1
 36 -24 l 1,10,-1
 109 -23 l 1,11,-1
 109 800 l 1,12,-1
 284 800 l 1,13,-1
 284 -23 l 1,14,15
 331 -23 331 -23 373.5 4.5 c 128,-1,16
 416 32 416 32 449.5 75.5 c 128,-1,17
 483 119 483 119 515 186.5 c 128,-1,18
 547 254 547 254 570 321.5 c 128,-1,19
 593 389 593 389 616.5 477.5 c 128,-1,20
 640 566 640 566 655.5 637.5 c 128,-1,21
 671 709 671 709 689 798 c 1,0,-1
EndSplineSet
EndChar

StartChar: w
Encoding: 119 119 64
Width: 1485
Flags: W
LayerCount: 2
Fore
SplineSet
1270 808 m 1,0,-1
 1445 808 l 1,1,2
 1411 575 1411 575 1368 406 c 128,-1,3
 1325 237 1325 237 1275.5 124 c 128,-1,4
 1226 11 1226 11 1161.5 -57 c 128,-1,5
 1097 -125 1097 -125 1026 -154.5 c 128,-1,6
 955 -184 955 -184 863 -188 c 1,7,-1
 691 -188 l 1,8,-1
 691 110 l 1,9,10
 617 -48 617 -48 519 -116 c 128,-1,11
 421 -184 421 -184 284 -190 c 1,12,-1
 112 -190 l 1,13,-1
 40 -191 l 1,14,-1
 40 -15 l 1,15,-1
 112 -14 l 1,16,-1
 112 807 l 1,17,-1
 287 807 l 1,18,-1
 287 -14 l 1,19,20
 334 -14 334 -14 376.5 13 c 128,-1,21
 419 40 419 40 452.5 84 c 128,-1,22
 486 128 486 128 517.5 195 c 128,-1,23
 549 262 549 262 572.5 329 c 128,-1,24
 596 396 596 396 619 484 c 128,-1,25
 642 572 642 572 657.5 644 c 128,-1,26
 673 716 673 716 691 805 c 1,27,-1
 691 809 l 1,28,-1
 866 809 l 1,29,-1
 866 806 l 1,30,31
 866 806 866 806 866 805.5 c 128,-1,32
 866 805 866 805 866 804 c 2,33,-1
 866 -12 l 1,34,35
 913 -12 913 -12 955.5 15 c 128,-1,36
 998 42 998 42 1031.5 86 c 128,-1,37
 1065 130 1065 130 1096.5 197 c 128,-1,38
 1128 264 1128 264 1151.5 331.5 c 128,-1,39
 1175 399 1175 399 1198 487 c 128,-1,40
 1221 575 1221 575 1236.5 647 c 128,-1,41
 1252 719 1252 719 1270 808 c 1,0,-1
EndSplineSet
EndChar

StartChar: x
Encoding: 120 120 65
Width: 904
Flags: W
LayerCount: 2
Fore
SplineSet
867 -200 m 1,0,-1
 693 -200 l 1,1,2
 693 -193 693 -193 693.5 -180 c 128,-1,3
 694 -167 694 -167 692 -126.5 c 128,-1,4
 690 -86 690 -86 684 -45 c 128,-1,5
 678 -4 678 -4 663 54 c 128,-1,6
 648 112 648 112 625.5 166 c 128,-1,7
 603 220 603 220 564.5 281 c 128,-1,8
 526 342 526 342 477 393 c 1,9,10
 420 322 420 322 380.5 235 c 128,-1,11
 341 148 341 148 324.5 74 c 128,-1,12
 308 0 308 0 300 -63.5 c 128,-1,13
 292 -127 292 -127 292 -163 c 2,14,-1
 293 -200 l 1,15,-1
 119 -200 l 1,16,17
 119 244 119 244 332 510 c 1,18,19
 204 588 204 588 37 624 c 1,20,-1
 37 800 l 1,21,22
 45 799 45 799 61 797 c 128,-1,23
 77 795 77 795 125.5 784 c 128,-1,24
 174 773 174 773 222 757 c 128,-1,25
 270 741 270 741 336.5 710 c 128,-1,26
 403 679 403 679 463 639 c 1,27,28
 615 759 615 759 794 795 c 0,29,30
 825 800 825 800 825 800 c 1,31,-1
 825 624 l 1,32,33
 704 588 704 588 608 519 c 1,34,35
 867 252 867 252 867 -200 c 1,0,-1
EndSplineSet
EndChar

StartChar: y
Encoding: 121 121 66
Width: 901
Flags: W
LayerCount: 2
Fore
SplineSet
864 800 m 1,0,-1
 864 341 l 2,1,2
 864 239 864 239 791.5 166.5 c 128,-1,3
 719 94 719 94 616 94 c 2,4,-1
 539 94 l 1,5,-1
 539 -200 l 1,6,-1
 362 -200 l 1,7,-1
 362 94 l 1,8,-1
 285 94 l 2,9,10
 182 94 182 94 109.5 166.5 c 128,-1,11
 37 239 37 239 37 341 c 2,12,-1
 37 800 l 1,13,-1
 215 800 l 1,14,-1
 215 351 l 2,15,16
 215 318 215 318 238.5 294.5 c 128,-1,17
 262 271 262 271 295 271 c 2,18,-1
 363 271 l 1,19,-1
 363 334 l 1,20,-1
 538 334 l 1,21,-1
 538 271 l 1,22,-1
 606 271 l 2,23,24
 639 271 639 271 662.5 294.5 c 128,-1,25
 686 318 686 318 686 351 c 2,26,-1
 686 800 l 1,27,-1
 864 800 l 1,0,-1
EndSplineSet
EndChar

StartChar: z
Encoding: 122 122 67
Width: 892
Flags: W
LayerCount: 2
Fore
SplineSet
374 -20 m 1,0,-1
 861 -20 l 1,1,-1
 861 -200 l 1,2,-1
 105 -200 l 1,3,-1
 105 -20 l 1,4,-1
 170 -20 l 1,5,-1
 515 620 l 1,6,-1
 31 620 l 1,7,-1
 31 800 l 1,8,-1
 787 800 l 1,9,-1
 787 620 l 1,10,-1
 721 620 l 1,11,-1
 374 -20 l 1,0,-1
EndSplineSet
EndChar

StartChar: underscore
Encoding: 95 95 68
Width: 1000
LayerCount: 2
Fore
SplineSet
53 -30 m 1,0,-1
 52 -170 l 1,1,-1
 965 -171 l 1,2,-1
 937 -85 l 4,3,-1
 891 -33 l 1,4,-1
 53 -30 l 1,0,-1
EndSplineSet
EndChar

StartChar: exclam
Encoding: 33 33 69
Width: 1000
LayerCount: 2
Fore
SplineSet
370 42 m 25,0,-1
 334 753 l 25,1,-1
 568 756 l 25,2,-1
 535 42 l 25,3,-1
 370 42 l 25,0,-1
373 -27 m 1,4,-1
 370 -171 l 1,5,-1
 537 -173 l 1,6,-1
 537 -27 l 5,7,-1
 373 -27 l 1,4,-1
EndSplineSet
EndChar

StartChar: question
Encoding: 63 63 70
Width: 1000
LayerCount: 2
Fore
SplineSet
265 573 m 25,0,-1
 223 645 l 1,1,-1
 298 729 l 1,2,-1
 412 777 l 1,3,-1
 538 762 l 1,4,-1
 637 708 l 1,5,-1
 676 600 l 1,6,-1
 673 507 l 25,7,8
 663.678571429 465.571428571 663.678571429 465.571428571 631 391.5 c 24,9,10
 626 381 626 381 605.5 354 c 24,11,12
 572 311 572 311 557.5 297 c 24,13,14
 526 253 526 253 520 237 c 24,15,16
 505 193 505 193 505 144 c 24,17,18
 476.241560719 93.4248136782 476.241560719 93.4248136782 436 90 c 24,19,20
 388.898779612 85.9913854989 388.898779612 85.9913854989 364 132 c 24,21,22
 353.98046875 150.03515625 353.98046875 150.03515625 367 217.5 c 24,23,24
 376 265 376 265 397 303 c 152,-1,25
 418 341 418 341 460 387 c 28,26,27
 518.79296875 468.09375 518.79296875 468.09375 521.5 474 c 28,28,29
 544.831996513 524.635396687 544.831996513 524.635396687 542.5 567 c 24,30,31
 539.995119787 612.087843833 539.995119787 612.087843833 512.5 637.5 c 24,32,33
 488.994000511 659.005488895 488.994000511 659.005488895 443.5 658.5 c 24,34,35
 416 658 416 658 377.5 636 c 24,36,37
 367 630 367 630 329.5 592.5 c 24,38,39
 291.102393617 559.089095745 291.102393617 559.089095745 287.5 558 c 24,40,41
 278 555 278 555 265 573 c 25,0,-1
364 -51 m 25,42,-1
 364 -165 l 25,43,-1
 505 -162 l 25,44,-1
 502 -42 l 25,45,-1
 364 -51 l 25,42,-1
EndSplineSet
EndChar
